<svg 
 xmlns="http://www.w3.org/2000/svg"
 xmlns:xlink="http://www.w3.org/1999/xlink"
 width="25px" height="25px">
<path fill-rule="evenodd"  fill="rgb(129, 129, 129)"
 d="M13.1000,21.1000 C11.184,21.1000 8.623,20.932 6.677,19.192 L1.213,24.657 L0.506,23.949 L5.962,18.493 C4.130,16.528 2.1000,13.899 2.1000,10.1000 C2.1000,4.925 7.925,-0.000 13.1000,-0.000 C20.075,-0.000 24.1000,4.925 24.1000,10.1000 C24.1000,17.075 20.075,21.1000 13.1000,21.1000 ZM13.1000,0.999 C8.477,0.999 3.1000,5.477 3.1000,10.1000 C3.1000,16.522 8.477,20.999 13.1000,20.999 C19.523,20.999 23.1000,16.522 23.1000,10.1000 C23.1000,5.477 19.523,0.999 13.1000,0.999 Z"/>
</svg>