<svg 
 xmlns="http://www.w3.org/2000/svg"
 xmlns:xlink="http://www.w3.org/1999/xlink"
 width="43px" height="43px">
<path fill-rule="evenodd"  fill="rgb(46, 120, 150)"
 d="M-0.000,-0.000 L43.000,-0.000 L43.000,43.000 L-0.000,43.000 L-0.000,-0.000 Z"/>
<path fill-rule="evenodd"  fill="rgb(255, 255, 255)"
 d="M35.1000,27.1000 L35.1000,28.1000 L28.1000,28.1000 L25.1000,25.1000 L23.1000,25.1000 L23.1000,28.1000 L18.1000,28.1000 C19.009,29.020 14.759,26.993 11.403,21.844 C8.681,17.667 7.1000,13.1000 7.1000,13.1000 L13.1000,13.1000 C13.1000,13.1000 14.629,16.688 15.487,17.979 C16.853,20.035 18.988,21.999 18.1000,21.1000 L18.1000,14.1000 C18.1000,14.996 18.402,14.490 18.088,13.914 C17.830,13.441 18.071,13.448 19.388,13.390 C21.148,13.312 22.647,13.384 23.590,13.444 C24.171,13.481 23.1000,14.1000 23.1000,14.1000 L23.1000,20.1000 L24.1000,20.1000 C24.1000,20.1000 26.597,20.131 27.752,18.238 C29.122,15.992 29.012,13.988 28.1000,13.1000 L35.1000,13.1000 L35.1000,14.1000 L30.1000,21.1000 L30.1000,22.1000 L35.1000,27.1000 Z"/>
</svg>