<svg 
 xmlns="http://www.w3.org/2000/svg"
 xmlns:xlink="http://www.w3.org/1999/xlink"
 width="43px" height="43px">
<path fill-rule="evenodd"  fill="rgb(71, 166, 42)"
 d="M-0.000,-0.000 L43.000,-0.000 L43.000,43.000 L-0.000,43.000 L-0.000,-0.000 Z"/>
<path fill-rule="evenodd"  fill="rgb(255, 255, 255)"
 d="M22.499,32.975 C20.728,32.975 19.059,32.559 17.564,31.839 L17.855,32.131 L11.101,33.819 L12.708,27.391 C11.694,25.687 11.101,23.704 11.101,21.577 C11.101,15.283 16.204,10.180 22.499,10.180 C28.794,10.180 33.897,15.283 33.897,21.577 C33.897,27.872 28.794,32.975 22.499,32.975 ZM29.403,23.742 C29.151,23.502 28.858,23.299 28.567,23.105 C28.145,22.823 27.721,22.540 27.233,22.376 C26.598,22.164 26.089,22.303 25.663,22.816 C25.468,23.053 25.276,23.294 25.090,23.537 C24.810,23.905 24.444,24.059 23.997,23.943 C23.715,23.869 23.435,23.765 23.178,23.629 C22.484,23.261 21.890,22.753 21.318,22.223 C20.882,21.820 20.469,21.395 20.186,20.868 C19.861,20.263 19.897,19.797 20.429,19.317 C20.676,19.095 20.882,18.826 21.093,18.568 C21.233,18.396 21.305,18.190 21.323,17.967 C21.352,17.619 21.234,17.312 21.063,17.020 C20.782,16.541 20.401,16.140 20.026,15.738 C19.819,15.516 19.582,15.310 19.328,15.144 C18.922,14.880 18.525,14.941 18.189,15.291 C17.925,15.568 17.664,15.850 17.428,16.152 C16.700,17.083 16.465,18.143 16.626,19.300 C16.755,20.212 17.119,21.033 17.636,21.782 C18.923,23.649 20.600,25.099 22.568,26.215 C23.580,26.789 24.663,27.155 25.850,27.133 C26.842,27.114 27.736,26.816 28.479,26.160 C28.840,25.840 29.145,25.455 29.460,25.087 C29.860,24.620 29.848,24.168 29.403,23.742 Z"/>
</svg>